<svg width="92" height="96" viewBox="0 0 92 96" fill="none" xmlns="http://www.w3.org/2000/svg">
<rect x="33.481" y="22.2068" width="58.4209" height="58.4209" rx="8" fill="url(#paint0_linear_14_24)"/>
<g filter="url(#filter0_b_14_24)">
<rect width="71.3847" height="96" rx="8" fill="url(#paint1_linear_14_24)" fill-opacity="0.4"/>
<rect x="0.5" y="0.5" width="70.3847" height="95" rx="7.5" stroke="white" stroke-opacity="0.4"/>
</g>
<path fill-rule="evenodd" clip-rule="evenodd" d="M54.0432 37.2379L46.9722 30.1669C45.8006 28.9953 43.9011 28.9953 42.7295 30.1669L25.7589 47.1374C25.3684 47.528 25.3684 48.1611 25.7589 48.5517L35.6584 58.4512C36.049 58.8417 36.6821 58.8417 37.0727 58.4512L54.0432 41.4806C55.2148 40.309 55.2148 38.4095 54.0432 37.2379ZM47.6793 29.4598C46.1172 27.8977 43.5845 27.8977 42.0224 29.4598L25.0518 46.4303C24.6613 46.8209 24.6613 47.454 25.0518 47.8446L36.3655 59.1583C36.7561 59.5488 37.3892 59.5488 37.7798 59.1583L54.7503 42.1877C56.3124 40.6256 56.3124 38.0929 54.7503 36.5308L47.6793 29.4598Z" fill="white" stroke="white" stroke-linejoin="round"/>
<path d="M25.5296 60.99C24.1567 61.2378 22.9584 60.0394 23.2062 58.6666L25.018 48.6275L35.5687 59.1781L25.5296 60.99Z" stroke="white" stroke-width="2"/>
<defs>
<filter id="filter0_b_14_24" x="-12" y="-12" width="95.3848" height="120" filterUnits="userSpaceOnUse" color-interpolation-filters="sRGB">
<feFlood flood-opacity="0" result="BackgroundImageFix"/>
<feGaussianBlur in="BackgroundImageFix" stdDeviation="6"/>
<feComposite in2="SourceAlpha" operator="in" result="effect1_backgroundBlur_14_24"/>
<feBlend mode="normal" in="SourceGraphic" in2="effect1_backgroundBlur_14_24" result="shape"/>
</filter>
<linearGradient id="paint0_linear_14_24" x1="62.6914" y1="22.2068" x2="62.6914" y2="80.6277" gradientUnits="userSpaceOnUse">
<stop stop-color="#FFAB6F"/>
<stop offset="1" stop-color="#FF5F4A"/>
</linearGradient>
<linearGradient id="paint1_linear_14_24" x1="35.6924" y1="0" x2="35.6924" y2="96" gradientUnits="userSpaceOnUse">
<stop stop-color="#FFAB6F"/>
<stop offset="1" stop-color="#FF5F4A"/>
</linearGradient>
</defs>
</svg>
