<svg width="82" height="94" viewBox="0 0 82 94" fill="none" xmlns="http://www.w3.org/2000/svg"> 
<path d="M0 32C0 25.3726 5.37258 20 12 20H45C51.6274 20 57 25.3726 57 32V94H8C3.58172 94 0 90.4183 0 86V32Z" fill="url(#paint0_linear_8_68)"/> 
<g filter="url(#filter0_b_8_68)"> 
<path d="M20 20C20 8.9543 28.9543 0 40 0H62C73.0457 0 82 8.95431 82 20V86C82 90.4183 78.4183 94 74 94H20V20Z" fill="url(#paint1_linear_8_68)" fill-opacity="0.4"/> 
<path d="M20.5 20C20.5 9.23044 29.2304 0.5 40 0.5H62C72.7696 0.5 81.5 9.23045 81.5 20V86C81.5 90.1421 78.1421 93.5 74 93.5H20.5V20Z" stroke="url(#paint2_linear_8_68)"/> 
</g> 
<rect x="41" y="43" width="24" height="8" rx="4" fill="white"/> 
<rect x="41" y="43" width="24" height="8" rx="4" fill="white"/> 
<rect x="41" y="43" width="24" height="8" rx="4" fill="white"/> 
<rect x="49" y="59" width="24" height="8" rx="4" transform="rotate(-90 49 59)" fill="white"/> 
<rect x="49" y="59" width="24" height="8" rx="4" transform="rotate(-90 49 59)" fill="white"/> 
<rect x="49" y="59" width="24" height="8" rx="4" transform="rotate(-90 49 59)" fill="white"/> 
<defs> 
<filter id="filter0_b_8_68" x="8" y="-12" width="86" height="118" filterUnits="userSpaceOnUse" color-interpolation-filters="sRGB"> 
<feFlood flood-opacity="0" result="BackgroundImageFix"/> 
<feGaussianBlur in="BackgroundImageFix" stdDeviation="6"/> 
<feComposite in2="SourceAlpha" operator="in" result="effect1_backgroundBlur_8_68"/> 
<feBlend mode="normal" in="SourceGraphic" in2="effect1_backgroundBlur_8_68" result="shape"/> 
</filter> 
<linearGradient id="paint0_linear_8_68" x1="28.5" y1="20" x2="28.5" y2="94" gradientUnits="userSpaceOnUse"> 
<stop stop-color="#9c8db9"/> 
<stop offset="1" stop-color="#7c8db5"/> 
</linearGradient> 
<linearGradient id="paint1_linear_8_68" x1="51" y1="0" x2="51" y2="94" gradientUnits="userSpaceOnUse"> 
<stop stop-color="#9c8db9"/> 
<stop offset="1" stop-color="#7c8db5"/> 
</linearGradient> 
<linearGradient id="paint2_linear_8_68" x1="51" y1="0" x2="51" y2="94" gradientUnits="userSpaceOnUse"> 
<stop stop-color="white" stop-opacity="0.2"/> 
<stop offset="0.484375" stop-color="white" stop-opacity="0.4"/> 
<stop offset="0.979167" stop-color="white" stop-opacity="0.1"/> 
</linearGradient> 
</defs> 
</svg>
