<svg width="89" height="82" viewBox="0 0 89 82" fill="none" xmlns="http://www.w3.org/2000/svg"> 
<path fill-rule="evenodd" clip-rule="evenodd" d="M59 82C42.4315 82 29 68.5685 29 52C29 35.4315 42.4315 22 59 22C75.5685 22 89 35.4315 89 52C89 52.6514 88.9792 53.298 88.9383 53.9391L88.9383 75.548C88.9383 78.6272 85.605 80.5517 82.9383 79.0121L77.3127 75.7641C72.2463 79.6741 65.8948 82 59 82Z" fill="url(#paint0_linear_10_101)"/> 
<g filter="url(#filter0_b_10_101)"> 
<mask id="path-2-inside-1_10_101" fill="white"> 
<path fill-rule="evenodd" clip-rule="evenodd" d="M41 82C63.6437 82 82 63.6437 82 41C82 18.3563 63.6437 0 41 0C18.3563 0 0 18.3563 0 41C0 41.8903 0.0283747 42.7739 0.0842691 43.6501L0.0842666 75.7225C0.0842664 78.8018 3.41761 80.7262 6.08427 79.1866L15.9726 73.4776C22.8968 78.8213 31.5772 82 41 82Z"/> 
</mask> 
<path fill-rule="evenodd" clip-rule="evenodd" d="M41 82C63.6437 82 82 63.6437 82 41C82 18.3563 63.6437 0 41 0C18.3563 0 0 18.3563 0 41C0 41.8903 0.0283747 42.7739 0.0842691 43.6501L0.0842666 75.7225C0.0842664 78.8018 3.41761 80.7262 6.08427 79.1866L15.9726 73.4776C22.8968 78.8213 31.5772 82 41 82Z" fill="url(#paint1_linear_10_101)" fill-opacity="0.4"/> 
<path d="M0.0842691 43.6501H1.08427V43.6182L1.08224 43.5864L0.0842691 43.6501ZM0.0842666 75.7225H1.08427H0.0842666ZM6.08427 79.1866L5.58427 78.3206H5.58427L6.08427 79.1866ZM15.9726 73.4776L16.5836 72.6859L16.053 72.2765L15.4726 72.6116L15.9726 73.4776ZM81 41C81 63.0914 63.0914 81 41 81V83C64.196 83 83 64.196 83 41H81ZM41 1C63.0914 1 81 18.9086 81 41H83C83 17.804 64.196 -1 41 -1V1ZM1 41C1 18.9086 18.9086 1 41 1V-1C17.804 -1 -1 17.804 -1 41H1ZM1.08224 43.5864C1.0277 42.7314 1 41.869 1 41H-1C-1 41.9115 -0.970948 42.8164 -0.913702 43.7137L1.08224 43.5864ZM1.08427 75.7225L1.08427 43.6501H-0.915731L-0.915733 75.7225H1.08427ZM5.58427 78.3206C3.58427 79.4753 1.08427 78.0319 1.08427 75.7225H-0.915733C-0.915734 79.5716 3.25094 81.9772 6.58427 80.0527L5.58427 78.3206ZM15.4726 72.6116L5.58427 78.3206L6.58427 80.0527L16.4726 74.3436L15.4726 72.6116ZM41 81C31.8059 81 23.3389 77.8993 16.5836 72.6859L15.3617 74.2693C22.4547 79.7432 31.3484 83 41 83V81Z" fill="url(#paint2_linear_10_101)" mask="url(#path-2-inside-1_10_101)"/> 
</g> 
<rect x="26" y="24" width="30" height="6" rx="3" fill="white"/> 
<rect x="26" y="35" width="30" height="6" rx="3" fill="white"/> 
<rect x="26" y="46" width="16" height="6" rx="3" fill="white"/> 
<defs> 
<filter id="filter0_b_10_101" x="-12" y="-12" width="106" height="106" filterUnits="userSpaceOnUse" color-interpolation-filters="sRGB"> 
<feFlood flood-opacity="0" result="BackgroundImageFix"/> 
<feGaussianBlur in="BackgroundImageFix" stdDeviation="6"/> 
<feComposite in2="SourceAlpha" operator="in" result="effect1_backgroundBlur_10_101"/> 
<feBlend mode="normal" in="SourceGraphic" in2="effect1_backgroundBlur_10_101" result="shape"/> 
</filter> 
<linearGradient id="paint0_linear_10_101" x1="59" y1="22" x2="59" y2="82" gradientUnits="userSpaceOnUse"> 
<stop stop-color="#9c8db5"/> 
<stop offset="1" stop-color="#7c8db5"/> 
</linearGradient> 
<linearGradient id="paint1_linear_10_101" x1="41" y1="0" x2="41" y2="82" gradientUnits="userSpaceOnUse"> 
<stop stop-color="#9c8db5"/> 
<stop offset="1" stop-color="#7c8db5"/> 
</linearGradient> 
<linearGradient id="paint2_linear_10_101" x1="41" y1="0" x2="41" y2="82" gradientUnits="userSpaceOnUse"> 
<stop stop-color="white" stop-opacity="0.2"/> 
<stop offset="0.526042" stop-color="white" stop-opacity="0.4"/> 
<stop offset="1" stop-color="white" stop-opacity="0.1"/> 
</linearGradient> 
</defs> 
</svg>
