<svg width="69" height="81" viewBox="0 0 69 81" fill="none" xmlns="http://www.w3.org/2000/svg">
<ellipse cx="34.4805" cy="65.3614" rx="15.8205" ry="15.6386" fill="url(#paint0_linear_5_32)"/>
<g filter="url(#filter0_b_5_32)">
<path fill-rule="evenodd" clip-rule="evenodd" d="M34.8862 0C19.2037 0 6.49047 12.7132 6.49047 28.3957V56.1386L4.81188 56.1386C2.15435 56.1386 0 58.2929 0 60.9505C0 63.608 2.15435 65.7624 4.81188 65.7624H64.1491C66.8066 65.7624 68.961 63.608 68.961 60.9505C68.961 58.2929 66.8066 56.1386 64.1491 56.1386L63.2819 56.1386V28.3957C63.2819 12.7132 50.5687 0 34.8862 0Z" fill="#7c8db5" fill-opacity="0.4"/>
</g>
<path d="M17.8487 26.0644C17.8487 22.1294 19.43 18.3557 22.2448 15.5733C25.0595 12.7909 28.8772 11.2277 32.8578 11.2277V18.6461C30.8675 18.6461 28.9587 19.4276 27.5513 20.8188C26.1439 22.21 25.3533 24.0969 25.3533 26.0644H17.8487Z" fill="white"/>
<ellipse cx="32.8578" cy="14.8366" rx="3.65088" ry="3.60891" fill="white"/>
<ellipse cx="21.4996" cy="25.2624" rx="3.65088" ry="3.60891" fill="white"/>
<defs>
<filter id="filter0_b_5_32" x="-12" y="-12" width="92.9609" height="89.7624" filterUnits="userSpaceOnUse" color-interpolation-filters="sRGB">
<feFlood flood-opacity="0" result="BackgroundImageFix"/>
<feGaussianBlur in="BackgroundImageFix" stdDeviation="6"/>
<feComposite in2="SourceAlpha" operator="in" result="effect1_backgroundBlur_5_32"/>
<feBlend mode="normal" in="SourceGraphic" in2="effect1_backgroundBlur_5_32" result="shape"/>
</filter>
<linearGradient id="paint0_linear_5_32" x1="34.4805" y1="49.7228" x2="34.4805" y2="81" gradientUnits="userSpaceOnUse">
<stop stop-color="#9c8db5"/>
<stop offset="1" stop-color="#7c8db5"/>
</linearGradient>
</defs>
</svg>
