<svg width="87" height="98" viewBox="0 0 87 98" fill="none" xmlns="http://www.w3.org/2000/svg">
<rect width="73.7882" height="96.8471" rx="8" fill="url(#paint0_linear_14_41)"/>
<g filter="url(#filter0_b_14_41)">
<mask id="path-2-inside-1_14_41" fill="white">
<path fill-rule="evenodd" clip-rule="evenodd" d="M75.9032 65.4122C82.3125 60.689 86.4706 53.0877 86.4706 44.5153C86.4706 30.1884 74.8563 18.5741 60.5294 18.5741C46.2025 18.5741 34.5883 30.1884 34.5883 44.5153C34.5883 53.0878 38.7464 60.6891 45.1557 65.4123C38.8662 68.7824 34.5884 75.418 34.5884 83.0526V88C34.5884 93.5228 39.0655 98 44.5884 98H76.4707C81.9936 98 86.4707 93.5228 86.4707 88V83.0526C86.4707 75.4179 82.1928 68.7824 75.9032 65.4122Z"/>
</mask>
<path fill-rule="evenodd" clip-rule="evenodd" d="M75.9032 65.4122C82.3125 60.689 86.4706 53.0877 86.4706 44.5153C86.4706 30.1884 74.8563 18.5741 60.5294 18.5741C46.2025 18.5741 34.5883 30.1884 34.5883 44.5153C34.5883 53.0878 38.7464 60.6891 45.1557 65.4123C38.8662 68.7824 34.5884 75.418 34.5884 83.0526V88C34.5884 93.5228 39.0655 98 44.5884 98H76.4707C81.9936 98 86.4707 93.5228 86.4707 88V83.0526C86.4707 75.4179 82.1928 68.7824 75.9032 65.4122Z" fill="#9c8db5" fill-opacity="0.4"/>
<path d="M75.9032 65.4122L75.31 64.6072L74.0359 65.5461L75.4309 66.2936L75.9032 65.4122ZM45.1557 65.4123L45.628 66.2937L47.0231 65.5462L45.749 64.6072L45.1557 65.4123ZM85.4706 44.5153C85.4706 52.7566 81.4745 60.0644 75.31 64.6072L76.4965 66.2172C83.1505 61.3136 87.4706 53.4189 87.4706 44.5153H85.4706ZM60.5294 19.5741C74.3041 19.5741 85.4706 30.7407 85.4706 44.5153H87.4706C87.4706 29.6361 75.4086 17.5741 60.5294 17.5741V19.5741ZM35.5883 44.5153C35.5883 30.7407 46.7548 19.5741 60.5294 19.5741V17.5741C45.6502 17.5741 33.5883 29.6361 33.5883 44.5153H35.5883ZM45.749 64.6072C39.5844 60.0644 35.5883 52.7566 35.5883 44.5153H33.5883C33.5883 53.4189 37.9084 61.3137 44.5625 66.2173L45.749 64.6072ZM35.5884 83.0526C35.5884 75.8011 39.6505 69.4967 45.628 66.2937L44.6834 64.5308C38.082 68.0681 33.5884 75.0349 33.5884 83.0526H35.5884ZM35.5884 88V83.0526H33.5884V88H35.5884ZM44.5884 97C39.6178 97 35.5884 92.9706 35.5884 88H33.5884C33.5884 94.0751 38.5132 99 44.5884 99V97ZM76.4707 97H44.5884V99H76.4707V97ZM85.4707 88C85.4707 92.9705 81.4413 97 76.4707 97V99C82.5458 99 87.4707 94.0751 87.4707 88H85.4707ZM85.4707 83.0526V88H87.4707V83.0526H85.4707ZM75.4309 66.2936C81.4086 69.4966 85.4707 75.801 85.4707 83.0526H87.4707C87.4707 75.0348 82.977 68.0681 76.3755 64.5308L75.4309 66.2936Z" fill="white" fill-opacity="0.2" mask="url(#path-2-inside-1_14_41)"/>
</g>
<rect x="6.9176" y="24.2118" width="21.9059" height="4.61176" rx="2.30588" fill="white"/>
<rect x="6.9176" y="32.2823" width="13.8353" height="4.61176" rx="2.30588" fill="white"/>
<defs>
<filter id="filter0_b_14_41" x="22.5883" y="6.57414" width="75.8824" height="103.426" filterUnits="userSpaceOnUse" color-interpolation-filters="sRGB">
<feFlood flood-opacity="0" result="BackgroundImageFix"/>
<feGaussianBlur in="BackgroundImageFix" stdDeviation="6"/>
<feComposite in2="SourceAlpha" operator="in" result="effect1_backgroundBlur_14_41"/>
<feBlend mode="normal" in="SourceGraphic" in2="effect1_backgroundBlur_14_41" result="shape"/>
</filter>
<linearGradient id="paint0_linear_14_41" x1="36.8941" y1="0" x2="36.8941" y2="96.8471" gradientUnits="userSpaceOnUse">
<stop stop-color="#7c8db5"/>
<stop offset="1" stop-color="#7c8db5"/>
</linearGradient>
</defs>
</svg>
