<svg width="99" height="66" viewBox="0 0 99 66" fill="none" xmlns="http://www.w3.org/2000/svg">
<path d="M1.19733 13.0928C0.554476 6.06322 6.08853 0 13.1475 0H58.9083C65.9673 0 71.5013 6.06323 70.8585 13.0928L67.0486 54.7539C66.4836 60.932 61.3024 65.661 55.0985 65.661H16.9573C10.7534 65.661 5.57219 60.932 5.0072 54.7538L1.19733 13.0928Z" fill="url(#paint0_linear_4_16)"/>
<g filter="url(#filter0_b_4_16)">
<path d="M23.0386 17.0908C24.8595 13.2519 28.7284 10.805 32.9772 10.805H78.9169C87.4083 10.805 92.6976 20.0177 88.4165 27.3509L69.2353 60.2069C67.2635 63.5844 63.6466 65.661 59.7356 65.661H17.3924C9.31463 65.661 3.99194 57.2452 7.45381 49.9468L23.0386 17.0908Z" fill="url(#paint1_linear_4_16)" fill-opacity="0.4"/>
<path d="M23.4903 17.305C25.2285 13.6407 28.9215 11.305 32.9772 11.305H78.9169C87.0223 11.305 92.0712 20.0989 87.9847 27.0988L68.8035 59.9548C66.9213 63.1788 63.4688 65.161 59.7356 65.161H17.3924C9.6818 65.161 4.60105 57.1277 7.90557 50.1611L23.4903 17.305Z" stroke="url(#paint2_linear_4_16)"/>
</g>
<rect x="34.0773" y="33.2461" width="23.2723" height="6.64922" rx="3.32461" fill="white"/>
<rect x="42.3888" y="48.2068" width="23.2723" height="6.64922" rx="3.32461" transform="rotate(-90 42.3888 48.2068)" fill="white"/>
<defs>
<filter id="filter0_b_4_16" x="-5.62097" y="-1.19501" width="107.554" height="78.856" filterUnits="userSpaceOnUse" color-interpolation-filters="sRGB">
<feFlood flood-opacity="0" result="BackgroundImageFix"/>
<feGaussianBlur in="BackgroundImageFix" stdDeviation="6"/>
<feComposite in2="SourceAlpha" operator="in" result="effect1_backgroundBlur_4_16"/>
<feBlend mode="normal" in="SourceGraphic" in2="effect1_backgroundBlur_4_16" result="shape"/>
</filter>
<linearGradient id="paint0_linear_4_16" x1="-4.57116e-07" y1="15.7919" x2="70.5546" y2="15.7919" gradientUnits="userSpaceOnUse">
<stop stop-color="#7c8db5"/>
<stop offset="1" stop-color="#7c8db5"/>
</linearGradient>
<linearGradient id="paint1_linear_4_16" x1="91.0705" y1="22.0255" x2="15.512" y2="22.0255" gradientUnits="userSpaceOnUse">
<stop stop-color="#7c8db5"/>
<stop offset="1" stop-color="white"/>
</linearGradient>
<linearGradient id="paint2_linear_4_16" x1="49.038" y1="10.805" x2="49.038" y2="65.661" gradientUnits="userSpaceOnUse">
<stop stop-color="white" stop-opacity="0.6"/>
<stop offset="0.614583" stop-color="white" stop-opacity="0"/>
<stop offset="1" stop-color="white" stop-opacity="0"/>
</linearGradient>
</defs>
</svg>
